<svg id="Capa_1" enable-background="new 0 0 512 512" height="512" viewBox="0 0 512 512" width="512" xmlns="http://www.w3.org/2000/svg"><g><g><path clip-rule="evenodd" d="m45.2 504.5h421.6c15.3 0 27.8-12.5 27.8-27.8v-305.1l-238.1-11.6-239.2 11.6v305.1c0 15.3 12.6 27.8 27.9 27.8z" fill="#eff6ff" fill-rule="evenodd"/></g><g><path clip-rule="evenodd" d="m17.3 171.6h477.3c5.4 0 9.8-4.3 9.9-9.6v-.2-26.6l-241.5-20.6-255.5 20.6v26.6.2c.1 5.3 4.5 9.6 9.8 9.6z" fill="#9fd4fe" fill-rule="evenodd"/></g><g><path clip-rule="evenodd" d="m7.5 135.2h497v-67.8-.2c-.1-5.3-4.5-9.6-9.9-9.6h-477.3c-5.4 0-9.8 4.3-9.8 9.7v.2z" fill="#eb5468" fill-rule="evenodd"/></g><g><path clip-rule="evenodd" d="m363.8 57.6c13.2 23.3 24.6 49.4 34 77.6h106.7v-67.8-.2c-.1-5.3-4.5-9.6-9.9-9.6h-41.2v20.7c0 12.4-10.2 22.6-22.6 22.6s-22.6-10.2-22.6-22.6v-20.7z" fill="#e5384f" fill-rule="evenodd"/></g><g><path clip-rule="evenodd" d="m397.8 135.2c3.9 11.8 7.5 23.9 10.6 36.4h86.2c5.4 0 9.8-4.3 9.9-9.6v-.2-26.6z" fill="#85beef" fill-rule="evenodd"/></g><g><path clip-rule="evenodd" d="m58.6 78.3c0 12.4 10.2 22.6 22.6 22.6s22.6-10.2 22.6-22.6v-20.7-27.5c0-12.4-10.2-22.6-22.6-22.6s-22.6 10.1-22.6 22.6v27.5z" fill="#ffd772" fill-rule="evenodd"/></g><g><path clip-rule="evenodd" d="m175.1 78.3c0 12.4 10.1 22.6 22.6 22.6 12.4 0 22.6-10.2 22.6-22.6v-20.7-27.5c0-12.4-10.2-22.6-22.6-22.6s-22.6 10.1-22.6 22.6v27.5z" fill="#ffd772" fill-rule="evenodd"/></g><g><path clip-rule="evenodd" d="m291.7 78.3c0 12.4 10.1 22.6 22.6 22.6 12.4 0 22.6-10.2 22.6-22.6v-20.7-27.5c0-12.4-10.2-22.6-22.6-22.6s-22.6 10.1-22.6 22.6v27.5z" fill="#ffd772" fill-rule="evenodd"/></g><g><path clip-rule="evenodd" d="m408.2 30.1v27.5 20.7c0 12.4 10.2 22.6 22.6 22.6s22.6-10.2 22.6-22.6v-20.7-27.5c0-12.4-10.2-22.6-22.6-22.6s-22.6 10.1-22.6 22.6z" fill="#ffd772" fill-rule="evenodd"/></g><g><path clip-rule="evenodd" d="m198.1 30.1v48.2c0 8.4-4.6 15.8-11.5 19.6 3.3 1.9 7.1 2.9 11.1 2.9 12.4 0 22.6-10.2 22.6-22.6v-20.6-27.5c0-12.4-10.2-22.6-22.6-22.6-4 0-7.8 1-11.1 2.9 6.9 3.9 11.5 11.3 11.5 19.7z" fill="#fbba58" fill-rule="evenodd"/></g><g><path clip-rule="evenodd" d="m81.6 30.1v48.2c0 8.4-4.6 15.8-11.5 19.6 3.3 1.9 7.1 2.9 11.1 2.9 12.4 0 22.6-10.2 22.6-22.6v-20.6-27.5c0-12.4-10.2-22.6-22.6-22.6-4 0-7.8 1-11.1 2.9 6.9 3.9 11.5 11.3 11.5 19.7z" fill="#fbba58" fill-rule="evenodd"/></g><g><path clip-rule="evenodd" d="m314.7 30.1v48.2c0 8.4-4.6 15.8-11.5 19.6 3.3 1.9 7.1 2.9 11.1 2.9 12.4 0 22.6-10.2 22.6-22.6v-20.6-27.5c0-12.4-10.2-22.6-22.6-22.6-4 0-7.8 1-11.1 2.9 6.8 3.9 11.5 11.3 11.5 19.7z" fill="#fbba58" fill-rule="evenodd"/></g><g><path clip-rule="evenodd" d="m431.2 30.1v48.2c0 8.4-4.6 15.8-11.5 19.6 3.3 1.9 7.1 2.9 11.1 2.9 12.4 0 22.6-10.2 22.6-22.6v-20.6-27.5c0-12.4-10.2-22.6-22.6-22.6-4 0-7.8 1-11.1 2.9 6.8 3.9 11.5 11.3 11.5 19.7z" fill="#fbba58" fill-rule="evenodd"/></g><g><path clip-rule="evenodd" d="m405 504.5h61.9c15.3 0 27.8-12.5 27.8-27.8v-305.1h-86.2-24.7c41.8 106.5 46.1 219.6 21.2 332.9z" fill="#d9eeff" fill-rule="evenodd"/></g><g><path clip-rule="evenodd" d="m269.6 247.2c-17.5 18.1-17.5 47.7 0 65.8l7.1 7 52 51.5c2.2 1.8 3.3 2.7 4.5 2.8 1.1-.1 2.2-1 4.5-2.8l32.1-31.8 19.8-19.6 7.1-7c17.5-18.1 17.5-47.7 0-65.8-15.9-16.4-41.5-12.3-58.4 2.9-3.1 2.8-4.3 4.2-5.1 4.2-.9 0-2-1.4-5.1-4.2-9.9-9-22.9-14.1-35-13.5-8.8.5-17 3.7-23.5 10.5z" fill="#eb5468" fill-rule="evenodd"/></g><g><path clip-rule="evenodd" d="m396.6 247.2c-9.9-10.2-23.6-12.5-36.5-9.1.6.6 1.2 1.2 1.9 1.8 17.5 18.1 17.5 47.7 0 65.8l-7.1 7-19.9 19.7-22.9 22.7 16.5 16.4c2.2 1.8 3.3 2.7 4.5 2.8 1.1-.1 2.2-1 4.5-2.8l32.1-31.8 19.8-19.6 7.1-7c17.4-18.2 17.4-47.8 0-65.9z" fill="#e5384f" fill-rule="evenodd"/></g><g><path clip-rule="evenodd" d="m128.5 294.5c-22.1 22.8-22.1 60.3 0 83.1l8.9 8.9 65.7 65.1c2.8 2.2 4.2 3.5 5.6 3.5 1.4-.1 2.8-1.3 5.7-3.5l40.6-40.2 25.1-24.8 9-8.9c22.1-22.9 22.1-60.3 0-83.1-20.1-20.8-52.4-15.6-73.9 3.7-3.9 3.6-5.3 5.4-6.4 5.3-1 0-2.5-1.8-6.4-5.3-12.6-11.3-28.9-17.8-44.3-17-11 .5-21.4 4.6-29.6 13.2z" fill="#eb5468" fill-rule="evenodd"/></g><g><path clip-rule="evenodd" d="m289 294.5c-12.5-12.9-29.8-15.8-46.2-11.5.8.7 1.6 1.5 2.4 2.3 22.1 22.8 22.1 60.3 0 83.1l-9 8.8-25.1 24.9-29 28.7 20.9 20.7c2.8 2.2 4.2 3.5 5.6 3.5 1.4-.1 2.8-1.3 5.7-3.5l40.6-40.2 25.1-24.8 9-8.9c22-22.8 22-60.2 0-83.1z" fill="#e5384f" fill-rule="evenodd"/></g><g><path clip-rule="evenodd" d="m61.8 224.5c-5.8 8.9-3.5 21.2 5.2 27.4l3.5 2.4 25.7 17.3c1.1.6 1.6.9 2.1.8s.8-.6 1.6-1.5l10.9-15.8 6.7-9.7 2.4-3.5c5.8-8.9 3.5-21.2-5.2-27.4-7.9-5.6-18.2-1.9-24.1 5.8-1.1 1.4-1.4 2.1-1.8 2.2-.3.1-.9-.4-2.4-1.4-4.8-2.9-10.6-4.1-15.6-2.8-3.6.9-6.8 2.9-9 6.2z" fill="#eb5468" fill-rule="evenodd"/></g><g><path clip-rule="evenodd" d="m114.6 214.6c-4.9-3.5-10.8-3.3-15.9-.9.3.2.6.4.9.6 13.7 9.7-5.1 39.3-11.7 51.8l8.2 5.5c1.1.6 1.6.9 2.1.8s.8-.6 1.6-1.5l10.9-15.8 6.7-9.7 2.4-3.5c5.8-8.9 3.5-21.2-5.2-27.3z" fill="#e5384f" fill-rule="evenodd"/></g><g><path clip-rule="evenodd" d="m390.1 398.5c-9.2 5.3-12.7 17.3-7.7 26.8l2 3.7 15.1 27c.7 1 1 1.5 1.5 1.6s1-.1 2.2-.6l16.8-9.2 10.4-5.7 3.7-2c9.2-5.3 12.7-17.3 7.7-26.8-4.5-8.5-15.4-9.9-24.1-5.7-1.6.8-2.2 1.2-2.6 1.1-.3-.1-.6-.8-1.6-2.3-3-4.8-7.6-8.4-12.6-9.6-3.6-.6-7.3-.3-10.8 1.7z" fill="#eb5468" fill-rule="evenodd"/></g><g><path clip-rule="evenodd" d="m414.6 450.8 15.7-8.6 3.7-2c9.2-5.3 12.7-17.3 7.7-26.8-4.3-8.1-14.3-9.7-22.7-6.3-.9 14.6-2.4 29.1-4.4 43.7z" fill="#e5384f" fill-rule="evenodd"/></g><g><path d="m123.2 383 8.9 8.9 65.7 65.1c7.3 7.4 14.6 7.3 21.9 0l74.6-73.9s.1-.1.1-.1c6-6.2 10.6-13.4 13.7-21.1l15.2 15.1c6.2 6.4 13.3 6.4 19.5 0l59-58.5s.1-.1.1-.1c20.3-21 20.3-55.2 0-76.2-19.9-20.6-50.4-14.1-68.8 2.6 0 0-.1.1-.1.1s0 0-.1-.1c-11.6-10.5-26.4-16.1-40.5-15.4-11.1.6-20.9 5-28.4 12.8-8.7 9-13.6 20.4-14.9 32.1-14.4 1.9-28.4 8.8-39.2 18.5-.5.4-.9.9-1.4 1.3-.4-.4-.9-.8-1.4-1.3-14.3-12.9-32.4-19.8-49.7-18.9-6.7.3-13.1 1.9-18.9 4.5s-11.1 6.3-15.7 11.1c-24.9 25.8-24.9 67.8 0 93.6.3-.2.3-.2.4-.1zm151.8-130.6c4.9-5.1 11.1-7.9 18.4-8.2 10-.5 21.1 3.8 29.6 11.6.9.8 1.6 1.5 2.2 2.1 2.1 2 4.3 4.1 7.9 4.1 3.5 0 5.7-2 7.8-4 .6-.6 1.4-1.3 2.3-2.1 13.3-12 34.6-17.2 48-3.3 14.7 15.2 14.7 40 0 55.3l-26.9 26.6-31.3 31-20.5-20.5c2.6-19.8-3.5-40.5-18.1-55.7-8.8-9.1-19.2-13.8-30-15.2 1.1-8 4.7-15.6 10.6-21.7zm-141.1 47.3c6.5-6.7 14.9-10.5 24.5-11 13.1-.7 27.7 5 38.9 15 1.1 1 2 1.9 2.8 2.6 2.6 2.5 4.9 4.7 8.6 4.7h.1c3.7 0 6.1-2.3 8.6-4.7.8-.7 1.7-1.6 2.8-2.6 8.2-7.4 18.8-12.8 29.6-14.6 5.1-.8 10.3-.8 15.3.2 6.8 1.4 13.2 4.7 18.6 10.3 8.3 8.6 13 19.5 14.2 30.7.7 6.5.2 13.2-1.5 19.6-2.2 8.2-6.4 15.9-12.6 22.4l-74.4 73.7-.3.3c-.1.1-.2.2-.3.3-.1-.1-.2-.2-.4-.3l-.3-.2-65.4-64.8-8.9-8.8c-19.3-20.2-19.3-52.8.1-72.8z"/><path d="m106 275.1 17.6-25.5 2.4-3.5s.1-.1.1-.1c8-12.3 4.9-29.1-7.1-37.6-9.8-6.9-23-4.8-32 4.6-5.8-2.7-12.2-3.4-18.1-2-5.6 1.4-10.2 4.6-13.4 9.4-8 12.3-4.8 29.1 7.1 37.6 0 0 .1.1.1.1l29.1 19.7c5.5 3.6 10.6 2.4 14.2-2.7zm-9.6-12.4-25.1-17c-5.3-3.8-6.8-11.6-3.2-17.1 1-1.6 2.5-2.6 4.4-3 3-.7 6.8 0 10 1.9.4.2.7.5 1 .6 1.2.8 3.6 2.4 6.9 1.7 3.1-.6 4.7-2.8 5.5-4 .2-.3.4-.6.7-.9 3.4-4.5 9.5-7.3 13.8-4.2 5.3 3.8 6.8 11.6 3.3 17.1z"/><path d="m386.4 392c-12.7 7.3-17.5 23.8-10.6 36.8 0 0 0 .1.1.1l17.1 30.7c3.1 5.4 8 7 13.8 4l30.9-16.8s.1 0 .1-.1c12.7-7.3 17.5-23.8 10.6-36.8-5.6-10.5-18.3-14.6-30.6-10.3-4-5-9.4-8.6-15.1-9.9s-11.3-.5-16.3 2.3zm20.8 18.6c.3.4.5.7.6 1 .8 1.3 2.1 3.5 4.9 4.4.2.1.4.1.5.2 3 .8 5.3-.4 6.6-1.1.3-.1.6-.3 1-.5 5.1-2.4 11.8-2.2 14.2 2.4 3.1 5.8.9 13.4-4.8 16.7l-26.6 14.5-12.6-22.9-2-3.6c-3-5.8-.8-13.4 4.9-16.7 1.6-.9 3.4-1.2 5.3-.7 3 .7 5.9 3 8 6.3z"/><path d="m494.6 50.1h-33.7v-20c0-16.6-13.5-30.1-30.1-30.1s-30.1 13.5-30.1 30.1v20h-56.3v-20c0-16.6-13.5-30.1-30.1-30.1s-30.1 13.5-30.1 30.1v20h-56.3v-20c0-16.6-13.5-30.1-30.1-30.1s-30.1 13.5-30.1 30.1v20h-56.3v-20c-.1-16.6-13.6-30.1-30.2-30.1s-30.1 13.5-30.1 30.1v20h-33.8c-9.5 0-17.3 7.8-17.3 17.3v94.3c0 6.9 4 12.8 9.8 15.6v299.3c0 19.5 15.9 35.3 35.3 35.3h193.1c4.1 0 7.5-3.4 7.5-7.5s-3.4-7.5-7.5-7.5h-193c-11.2 0-20.3-9.1-20.3-20.3v-297.5h212.5c4.1 0 7.5-3.4 7.5-7.5s-3.4-7.5-7.5-7.5h-220c-1.3 0-2.3-1.1-2.3-2.3v-19.1h482v19.1c0 1.3-1.1 2.3-2.4 2.3h-220.3c-4.1 0-7.5 3.4-7.5 7.5s3.4 7.5 7.5 7.5h212.7v297.6c0 11.2-9.1 20.3-20.3 20.3h-194.8c-4.1 0-7.5 3.4-7.5 7.5s3.4 7.5 7.5 7.5h194.8c19.5 0 35.3-15.9 35.3-35.3v-299.4c5.8-2.8 9.9-8.7 9.9-15.6v-94.3c0-9.5-7.8-17.3-17.4-17.3zm-78.9-20c0-8.3 6.8-15.1 15.1-15.1s15.1 6.8 15.1 15.1v48.2c0 8.3-6.8 15.1-15.1 15.1s-15.1-6.8-15.1-15.1zm-116.5 0c0-8.3 6.8-15.1 15.1-15.1s15.1 6.8 15.1 15.1v48.2c0 8.3-6.8 15.1-15.1 15.1s-15.1-6.8-15.1-15.1zm-116.6 0c0-8.3 6.8-15.1 15.1-15.1s15.1 6.8 15.1 15.1v48.2c0 8.3-6.8 15.1-15.1 15.1s-15.1-6.8-15.1-15.1zm-116.5 0c0-8.3 6.8-15.1 15.1-15.1s15.1 6.8 15.1 15.1v48.2c0 8.3-6.8 15.1-15.1 15.1s-15.1-6.8-15.1-15.1zm-51.1 97.6v-60.3c0-1.3 1.1-2.3 2.3-2.3h33.7v13.2c0 16.6 13.5 30.1 30.1 30.1s30.1-13.5 30.1-30.1v-13.2h56.3v13.2c0 16.6 13.5 30.1 30.1 30.1s30.1-13.5 30.1-30.1v-13.2h56.3v13.2c0 16.6 13.5 30.1 30.1 30.1s30.1-13.5 30.1-30.1v-13.2h56.3v13.2c0 16.6 13.5 30.1 30.1 30.1s30.1-13.5 30.1-30.1v-13.2h33.7c1.3 0 2.4 1 2.4 2.3v60.2z"/></g></g></svg>